<svg width="584" height="584" xmlns="http://www.w3.org/2000/svg" xmlns:svg="http://www.w3.org/2000/svg">
	<g class="layer">
		<title>Layer 1</title>
		<path d="m49,132c-2.2,0.99 -2.05,0.67 -2,3c-1.8,0 -1.52,0.01 -3,1l1,2c-2.33,1.48 -2.76,2.26 -3,5c-2.65,1.76 -3.84,3.82 -4,7l-2,0l1,2c-3.49,2.13 -5.01,4.94 -5,9l-2,0l1,2l-2,0l1,2c-3.37,2 -4.6,6.45 -6.15,10c-3.87,8.81 -7.19,17.87 -10.18,27c-13.14,40.02 -16.62,83.33 -11.8,125c1.48,12.78 3.88,25.51 7,38c0.83,3.33 1.52,11.43 5.13,12c-0.29,2.13 -0.49,2.57 1,4c-0.54,2.17 -0.84,1.9 1,3c-0.99,1.48 -1,1.2 -1,3c2.18,0.73 1.78,0.44 1,2c2.55,3.12 3.2,7.14 4.8,10.83c3.04,6.98 8.61,14.54 9.2,22.17c2.18,0.73 1.78,0.44 1,2c3.59,3.23 4.3,7.59 7.14,11.33c11.47,15.12 21.29,31.37 33.92,45.66c8.86,10.01 18.87,18.83 28.85,27.68c4.26,3.78 10.42,7.31 13.09,12.33c6.97,1.81 13.87,8.07 19.99,11.95c12.05,7.64 23.82,14.55 37.01,20.1c48.85,20.55 99.4,27.43 152,21.78c27.23,-2.93 53.99,-11.61 79,-22.33c13.81,-5.91 28.15,-12.09 40.83,-20.32c12.23,-7.93 23.19,-17.07 34.34,-26.32c59.36,-49.22 93.52,-123.65 98.74,-199.86c0.94,-13.69 -0.45,-27.42 -1.74,-41c-4.99,-52.35 -22.53,-102.53 -54.32,-144.96c-31.22,-41.67 -75.33,-76.01 -123.85,-94.93c-28.71,-11.19 -59.46,-17.03 -90,-19.94c-15.94,-1.52 -32.2,0.11 -48,1.66c-60.44,5.95 -115.12,30.33 -161.25,69.8c-13.73,11.75 -25.83,24.05 -36.87,38.37c-3.67,4.77 -10.02,10.99 -10.88,17z" fill="#fdfcfc" id="svg_2"/>
		<path d="m325,7c1.51,0.68 2.31,0.83 4,1c-1.51,-0.68 -2.31,-0.83 -4,-1m-86,1c1.25,0.68 1.55,0.75 3,1c-1.25,-0.68 -1.55,-0.75 -3,-1m-24,5c1.25,0.68 1.55,0.75 3,1c-1.25,-0.68 -1.55,-0.75 -3,-1m142.67,0.33c-0.45,0.45 0.61,0.39 0.66,0.34c0.45,-0.45 -0.61,-0.39 -0.66,-0.34m3,1c-0.45,0.45 0.61,0.39 0.66,0.34c0.45,-0.45 -0.61,-0.39 -0.66,-0.34m-151.67,0.67c1.25,0.68 1.55,0.75 3,1c-1.25,-0.68 -1.55,-0.75 -3,-1m-42,16c1.58,-0.68 1.78,-0.8 3,-2c-1.58,0.68 -1.78,0.8 -3,2m239,-2c1.22,1.2 1.42,1.32 3,2c-1.22,-1.2 -1.42,-1.32 -3,-2m8.67,4.33c-0.45,0.45 0.61,0.39 0.66,0.34c0.45,-0.45 -0.61,-0.39 -0.66,-0.34m-242.67,6.67c0.03,1.83 -0.08,1.56 1,3c-0.25,-1.45 -0.31,-1.75 -1,-3m223,0c1.35,7.95 3.57,14.73 2.91,23c-1.55,19.19 -12.89,39.09 -26.17,52.44c-7.08,7.12 -15.32,11.99 -24.03,16.81c-3.21,1.78 -8.54,2.75 -11.05,5.44c-1.74,1.85 -0.35,4.31 0.34,6.31c8.35,2.26 16.18,8.02 24,11.76c8.13,3.89 16.68,6.87 25,10.35c6,2.51 11.48,5.91 18,6.89c2.28,-10.95 7.58,-21.11 10.16,-32c5.04,-21.32 5.44,-41.48 1.76,-63c-2.24,-13.11 -8.48,-31.36 -20.92,-38m-253,1l1,1l-1,-1z" fill="#fb1110" id="svg_3"/>
		<path d="m170,42l-1,1l0,2c2.36,-0.48 2.52,-0.64 3,-3l-2,0z" fill="#0d0d0d" id="svg_4"/>
		<path d="m164,173c8.72,-1.23 18.03,-6.8 26,-10.49c9.33,-4.32 19.22,-7.22 28.28,-12.22c6.22,-3.44 13.47,-5.29 14.72,-13.29c-37.34,-8.02 -70.07,-53.9 -61,-92c-10.6,-0.34 -16.34,19.68 -18.8,28c-5.82,19.7 -4.65,45.18 0.27,65c2.91,11.69 8.69,23.15 10.53,35m-45,-115l1,1l-1,-1m-14,9l1,2c1.64,-0.55 1.45,-0.36 2,-2l-3,0m-2,2l0,2l2,0c-0.55,-1.64 -0.36,-1.45 -2,-2m-2,3l1,1l-1,-1m-5,3c-0.99,1.48 -1,1.2 -1,3c1.58,-0.68 1.78,-0.8 3,-2l-2,-1m-4,5l1,1l-1,-1m-1,1l1,1l-1,-1m404,11l1,1l-1,-1m-426,11l1,1l-1,-1m-1,1l1,1l-1,-1m-1,2l1,1l-1,-1m-3,3l1,1l-1,-1m-1,1l1,1l-1,-1m448,0l1,1l-1,-1m-451,4l1,1l-1,-1m455,1l1,1l-1,-1m-458,3l1,1l-1,-1m-5,7l1,1l-1,-1m-2,3l1,1l-1,-1m-2,3l1,1l-1,-1m479,0l1,1l-1,-1m1,2l1,1l-1,-1m-482,1l1,1l-1,-1m-2,3l1,1l-1,-1m-3,5l1,1l-1,-1m-3,5l1,1l-1,-1m-1,2l1,1l-1,-1m-1,2l1,1l-1,-1m-5,9l1,1l-1,-1m-1,2l1,1l-1,-1m-1,2l1,1l-1,-1m518.33,1.67c-0.05,0.05 -0.11,1.11 0.34,0.66c0.05,-0.05 0.11,-1.11 -0.34,-0.66m5,11c-0.05,0.05 -0.11,1.11 0.34,0.66c0.05,-0.05 0.11,-1.11 -0.34,-0.66z" fill="#fb1110" id="svg_5"/>
		<path d="m138,341l0,-48c-8.41,0.27 -11.82,8.76 -18,13.61c-8.94,7.01 -19.97,9.35 -31,7.14c-41.63,-8.34 -46.33,-74.57 -11,-93.7c13.25,-7.18 28.91,-6.55 41.28,2.22c6.58,4.66 10.15,13.45 18.72,13.73l0,-47c-4.29,0.23 -7.9,3.15 -12,3.18c-6.67,0.05 -14.26,-3.79 -21,-4.75c-14.94,-2.14 -33.38,-0.71 -47,6.1c-49.78,24.87 -58.71,104.06 -11.01,136.52c17.11,11.64 37.58,15.18 58.01,12.66c7.01,-0.86 13.95,-4.58 21,-4.66c4.09,-0.05 7.76,2.72 12,2.95m200,-153.41c-31.01,7.18 -50.06,29.55 -55.61,60.41c-0.99,5.49 -2.4,11.4 -2.26,17c0.96,39.03 25.47,78 67.87,78c4.93,0 10.14,0.46 15,-0.51c11.62,-2.34 22.89,-6.95 32,-14.7c22.65,-19.27 30.31,-55.58 23.76,-83.79c-7.48,-32.3 -32.72,-57 -66.76,-57c-4.61,0 -9.48,-0.45 -14,0.59z" fill="#0d0d0d" id="svg_6"/>
		<path d="m69,189c1.25,0.69 1.55,0.75 3,1c-1.25,-0.69 -1.55,-0.75 -3,-1z" fill="#fb1110" id="svg_7"/>
		<path d="m148,191c0.84,5.15 4.85,6.44 8.38,9.82c3.41,3.26 5.87,7.11 8.19,11.18c7.55,13.24 13.58,27.38 20.39,41c4.53,9.05 11.27,19.09 13.51,29c0.95,4.19 0.53,8.73 0.53,13c0,11.13 1.94,24.57 -2.8,35c-1.19,2.59 -7.99,8.14 -4.58,10.98c2.98,2.47 10.74,1.02 14.38,1.02l39,0c-0.45,-5.89 -5.36,-8.55 -7.06,-14c-2.99,-9.57 -1.94,-20.11 -1.94,-30c0,-5.5 -0.75,-11.65 0.79,-17c2.86,-9.96 9.13,-19.88 13.71,-29.17c6.88,-13.94 13.32,-28.23 20.88,-41.83c2.02,-3.62 4.6,-7.02 7.66,-9.81c3.46,-3.16 7.15,-4.26 7.96,-9.19l-53,0c0.56,3.74 3.68,7.23 3.3,11c-0.55,5.5 -4.48,12.11 -6.95,16.99c-4.42,8.7 -9.06,17.83 -12.35,27.01c-5.53,-9.66 -9.89,-19.94 -14.63,-30c-1.99,-4.22 -5.69,-9.21 -5.88,-14c-0.15,-3.82 2.94,-7.2 3.51,-11l-53,0m310,0c0.79,4.9 6.66,7.26 6.59,12.04c-0.11,8.1 -5.16,17.18 -7.15,25c-6.07,23.81 -13.58,47.12 -19.55,70.96c-2.79,11.2 -4.9,33.34 -17.89,37l0,6l53,0c-0.31,-4.02 -2.78,-6.3 -3.69,-10.04c-1.31,-5.44 -0.62,-14.87 2.12,-19.81c1.81,-3.26 5.28,-3.13 8.57,-3.15c7,-0.05 14,0 21,0c2.94,0 7.08,-0.62 9.41,1.6c5.55,5.31 6.68,21.53 -0.41,25.4l0,6l53,0c-0.42,-5.44 -3.99,-6.95 -7.06,-11.04c-2.47,-3.28 -3.68,-7.07 -4.8,-10.96c-8.39,-29.23 -17.09,-58.49 -24.38,-88c-2.28,-9.23 -8.31,-20.43 -8.02,-30c0.14,-4.4 4.55,-6.64 5.26,-11l-66,0z" fill="#0d0d0d" id="svg_8"/>
		<path d="m234,195l1,1l-1,-1m286,1c1.25,0.69 1.55,0.75 3,1c-1.25,-0.69 -1.55,-0.75 -3,-1m-133,1l1,1l-1,-1m2,1l1,1l-1,-1m75,1l1,1l-1,-1m-158,3l1,1l-1,-1m-33,4l1,1l-1,-1m24,5l1,1l-1,-1z" fill="#fb1110" id="svg_9"/>
		<path d="m344,215.56c-24.94,6.41 -29.59,43.51 -24.88,64.44c1.07,4.77 1.88,9.54 3.98,14c6.77,14.42 19.36,24.27 35.9,19.62c10.81,-3.03 17.2,-13.63 20.46,-23.62c5.71,-17.48 5.23,-37.88 -1.72,-55c-5.45,-13.42 -18.94,-23.25 -33.74,-19.44z" fill="#fdfcfc" id="svg_10"/>
		<path d="m338.67,217.33c-0.45,0.45 0.61,0.39 0.66,0.34c0.45,-0.45 -0.61,-0.39 -0.66,-0.34m-221.67,2.67l1,1l-1,-1m342,1l0,3c0.7,-1.55 0.7,-1.45 0,-3m-231,2l1,1l-1,-1m-205,5l1,1l-1,-1z" fill="#fb1110" id="svg_11"/>
		<path d="m491,228c-3.58,17.36 -9.42,34.47 -12,52l25,0c-1.53,-11.39 -4.75,-22.86 -7.53,-34c-1.47,-5.91 -2.21,-12.8 -5.47,-18z" fill="#fdfcfc" id="svg_12"/>
		<path d="m570.33,234.67c-0.05,0.05 -0.11,1.11 0.34,0.66c0.05,-0.05 0.11,-1.11 -0.34,-0.66m-437.33,1.33c1.77,0.78 3.04,0.91 5,1c-1.77,-0.78 -3.04,-0.91 -5,-1m44,1l1,1l-1,-1m37,3l1,1l-1,-1m165,0l1,1l-1,-1m-126.67,6.67c-0.05,0.05 -0.11,1.11 0.34,0.66c0.05,-0.05 0.11,-1.11 -0.34,-0.66m-70.33,0.33l1,1l-1,-1m-166,2l0,4c0.71,-1.76 0.71,-2.24 0,-4m232.33,5.67c-0.05,0.05 -0.11,1.11 0.34,0.66c0.05,-0.05 0.11,-1.11 -0.34,-0.66m283.67,-0.67l1,1l-1,-1m-346,1l1,1l-1,-1m-132,5l0,10c1.35,-3.21 1.35,-6.79 0,-10m263,0l0,10c1.35,-3.21 1.35,-6.79 0,-10m131,1l0,3c0.7,-1.55 0.7,-1.45 0,-3m54,9l0,3c0.7,-1.55 0.7,-1.45 0,-3m-486,6l0,5c0.83,-2.03 0.83,-2.97 0,-5m463,4c6.93,2.91 17.5,1 25,1c-6.93,-2.91 -17.5,-1 -25,-1m-61,4l0,3c0.7,-1.55 0.7,-1.45 0,-3m-355,12l1,1l-1,-1m312,2l1,1l-1,-1m-49,2l1,1l-1,-1m-302,2l1,4c0.39,-1.92 0.15,-2.36 -1,-4m95,5l1,1l-1,-1m-91,3l1,1l-1,-1m1,1l1,1l-1,-1m405,0l0,3c0.7,-1.55 0.7,-1.45 0,-3m-96,1c1.25,0.69 1.55,0.75 3,1c-1.25,-0.69 -1.55,-0.75 -3,-1m-298,12l1,1l-1,-1m1,1l1,1l-1,-1m198,7l1,1l-1,-1m148,0l1,1l-1,-1m185,3l0,3c0.7,-1.55 0.7,-1.45 0,-3m-102,141c-10.29,-8.93 -25.24,-12.96 -38,-16.88c-34.02,-10.47 -69.77,-10.62 -105,-12.16c-17.52,-0.77 -35.66,-3.38 -52,4.88c-9.03,4.57 -16.78,14.35 -19.29,24.16c-1.04,4.05 0.63,10.06 -1.74,13.57c-1.74,2.57 -6.49,3.62 -9.25,4.77c-10.03,4.18 -20.93,6.46 -31.72,7.49c-52.61,5.03 -103.12,-41.6 -93.54,-95.83c2.88,-16.27 9.5,-32.62 19.3,-46c5.58,-7.63 13.27,-14.08 18.24,-22c-12.86,4.95 -25.18,18.18 -33.15,29c-29.84,40.5 -31.49,102.92 12.15,135.08c8.17,6.02 17.36,10.89 27,14.1c18.41,6.11 39.83,6.11 59,4.32c12.43,-1.15 25.44,-4.36 38,-2.17c12.18,2.12 16.19,12.56 26,18.02c6.09,3.38 18.3,2.46 24.83,0.56c38.9,-11.33 64.33,-47.09 102.17,-60.78c13.93,-5.05 29.5,-5.02 44,-3.02c4.46,0.62 8.46,2.52 13,2.89m-93,-138l1,1l-1,-1m194,2l0,3c0.7,-1.55 0.7,-1.45 0,-3m-205,1c1.25,0.69 1.55,0.75 3,1c-1.25,-0.69 -1.55,-0.75 -3,-1m-288.33,1.33c-0.45,0.45 0.61,0.39 0.66,0.34c0.45,-0.45 -0.61,-0.39 -0.66,-0.34m491.33,7.67l0,3c0.7,-1.55 0.7,-1.45 0,-3m-284,48l-17,0c0.49,21 21.82,21.38 38,20.99c8.24,-0.21 19.7,-2.19 22.97,-10.99c6.56,-17.69 -10.18,-25.62 -24.97,-25.99c-3.86,-0.09 -13.68,1.5 -16.08,-2.56c-1.73,-2.93 3.02,-4.84 5.08,-5.22c6.56,-1.21 15.78,-0.44 18,6.77l18,0c-0.26,-3.33 -0.57,-6.99 -2.16,-10c-6.28,-11.88 -23.43,-11.27 -34.84,-10.99c-9.15,0.23 -20.7,3.35 -23.53,13.28c-5.08,17.85 15.57,22.7 28.53,22.71c3.77,0 11.97,-0.88 14.08,3.3c1.85,3.68 -3.5,5.42 -6.08,5.64c-7.24,0.63 -17.44,1.42 -20,-6.94m-97,-37l0,57l17,0l0,-31c8.03,6.12 14.87,13.87 22,21c3.21,3.21 6.62,7.78 11,9.4c4.38,1.61 10.39,0.6 15,0.6l0,-57l-18,0l0,32c-6.97,-7.55 -14.29,-14.79 -21.61,-22c-3.29,-3.24 -6.92,-7.85 -11.39,-9.41c-4.18,-1.45 -9.63,-0.59 -14,-0.59m157,0l0,57l18,0l0,-22l42,0c0,-3.36 1.18,-9.61 -1.03,-12.4c-2.12,-2.67 -7.99,-1.6 -10.97,-1.6l-30,0l0,-7l45,0l0,-14l-63,0m80,0c2.56,19 6.34,38.14 10,57c4.69,0 11.41,1.23 15.79,-0.6c3.02,-1.26 4.62,-4.78 6.07,-7.49c2.8,-5.21 5.89,-10.45 8.14,-15.91c3,4.89 5.99,9.85 8.52,15c1.41,2.85 2.74,6.96 5.86,8.4c4.39,2.02 11.85,0.6 16.62,0.6c0.87,-18.97 6.6,-38.1 9,-57l-18,0c-0.2,9.92 -3.8,19.14 -4,29c-4.23,-6 -7.3,-13.86 -9,-21l-17,0c-1.71,6.86 -6.09,12.98 -7,20l-2,0c-0.8,-9.21 -3.3,-18.87 -5,-28l-18,0m-411.67,16.67c-0.05,0.05 -0.11,1.11 0.34,0.66c0.05,-0.05 0.11,-1.11 -0.34,-0.66m0.67,3.33l1,1l-1,-1m1,3l1,1l-1,-1m1,3l1,1l-1,-1m1.33,2.67c-0.05,0.05 -0.11,1.11 0.34,0.66c0.05,-0.05 0.11,-1.11 -0.34,-0.66m0.67,3.33l1,1l-1,-1m538,0l0,3c0.7,-1.55 0.7,-1.45 0,-3m-536,5l1,1l-1,-1m2.33,4.67c-0.05,0.05 -0.11,1.11 0.34,0.66c0.05,-0.05 0.11,-1.11 -0.34,-0.66m2.67,6.33l1,4c0.55,-2.01 0.3,-2.33 -1,-4m524.33,0.67c-0.05,0.05 -0.11,1.11 0.34,0.66c0.05,-0.05 0.11,-1.11 -0.34,-0.66m-520.33,7.33l1,1l-1,-1m0.67,2.33c-0.45,0.45 0.61,0.39 0.66,0.34c0.45,-0.45 -0.61,-0.39 -0.66,-0.34m3.33,5.67l1,1l-1,-1m8,13c0.31,2.12 0.38,2.69 2,4c-0.51,-1.95 -0.73,-2.46 -2,-4m3,5l0,4l4,2c-1.01,-2.58 -1.98,-4.1 -4,-6m10,18l1,1l-1,-1m3,4l1,1l-1,-1m3,4l1,1l-1,-1m3,4l1,1l-1,-1m435,12l1,1l-1,-1m-4,4l1,1l-1,-1m-6,6l1,1l-1,-1m-11,10l1,1l-1,-1m-2,1l0,2c1.63,-0.55 1.45,-0.37 2,-2l-2,0m-11,10l1,1l-1,-1m-3,2l1,1l-1,-1m-4,3l1,1l-1,-1m-328,9c1.9,2.18 3.26,3.07 6,4c-1.9,-2.02 -3.41,-3 -6,-4m6,4c1.39,1.43 2.23,2.04 4,3c-1.23,-1.87 -1.87,-2.22 -4,-3m4,3c1.25,0.68 1.55,0.75 3,1c-1.25,-0.68 -1.55,-0.75 -3,-1m8,8l1,1l-1,-1m17,5c1.25,0.68 1.55,0.75 3,1c-1.25,-0.68 -1.55,-0.75 -3,-1m12.67,5.33c-0.45,0.45 0.61,0.39 0.66,0.34c0.45,-0.45 -0.61,-0.39 -0.66,-0.34z" fill="#fb1110" id="svg_13"/>
	</g>
</svg>